<?xml version="1.0" standalone="no"?>
<!DOCTYPE svg PUBLIC "-//W3C//DTD SVG 20010904//EN"
 "http://www.w3.org/TR/2001/REC-SVG-20010904/DTD/svg10.dtd">
<svg version="1.0" xmlns="http://www.w3.org/2000/svg"
 width="1024.000000pt" height="1024.000000pt" viewBox="0 0 1024.000000 1024.000000"
 preserveAspectRatio="xMidYMid meet">
<metadata>
Created by potrace 1.14, written by Peter Selinger 2001-2017
</metadata>
<g transform="translate(0.000000,1024.000000) scale(0.100000,-0.100000)"
fill="#000000" stroke="none">
<path d="M3369 8946 c-134 -36 -242 -155 -266 -291 -5 -27 -10 -995 -12 -2151
l-2 -2101 840 0 c760 0 841 2 841 16 1 9 3 58 7 109 l5 92 -96 0 -96 0 0 103
0 102 105 104 c58 58 105 112 106 120 6 97 11 229 10 252 -1 11 -44 -26 -111
-95 l-110 -111 0 73 c0 56 3 72 14 72 13 0 346 329 368 362 4 7 8 29 8 49 0
40 -38 88 -71 90 -11 1 -25 2 -31 4 -23 3 -57 -24 -173 -143 l-115 -117 0 377
0 377 538 -2 537 -2 0 -442 0 -443 26 0 c24 0 26 5 37 64 16 86 57 226 90 306
26 63 27 73 29 275 1 116 2 213 2 218 1 4 61 7 134 7 l132 0 31 33 c46 49 103
98 164 141 30 22 58 42 63 46 4 4 -106 6 -245 6 -139 -1 -261 0 -270 2 -12 3
-15 9 -9 24 4 11 125 138 269 283 233 233 262 266 262 294 0 62 -47 112 -97
105 -7 -1 -20 -2 -29 -3 -9 0 -102 -86 -207 -191 -104 -104 -193 -190 -196
-190 -3 0 -5 32 -5 71 l2 71 260 262 c143 143 265 272 270 286 14 38 -7 90
-45 113 -60 34 -79 22 -287 -184 -104 -104 -192 -189 -195 -189 -5 0 -6 606
-2 752 l1 27 535 0 535 0 1 -22 c0 -12 1 -319 2 -681 l2 -660 113 0 112 -1 0
997 c0 1037 -1 1060 -43 1143 -48 96 -137 168 -236 192 -79 18 -3433 18 -3502
-1z m1021 -980 c0 -8 -10 -13 -24 -13 -14 0 -37 -10 -53 -21 -15 -11 -148
-141 -295 -289 -261 -262 -268 -271 -268 -309 0 -67 58 -112 120 -94 22 6 106
84 273 251 l242 241 3 -73 3 -74 -297 -297 -297 -297 6 -42 c3 -23 14 -50 24
-61 29 -28 76 -39 107 -23 14 8 122 110 241 228 l215 215 -2 -432 -3 -431
-536 -1 -536 -1 0 768 0 768 539 1 c452 0 538 -2 538 -14z m1275 -763 c0 -682
-2 -773 -15 -774 -20 -1 -1032 -1 -1047 0 -10 1 -13 163 -13 776 l0 775 537
-2 538 -3 0 -772z m-1275 -1768 l0 -815 -539 0 -538 0 0 815 0 815 539 0 538
0 0 -815z"/>
<path d="M1965 7400 c-119 -29 -213 -112 -259 -228 -22 -58 -29 -148 -35 -489
l-1 -53 -502 0 c-315 0 -517 -4 -540 -10 -50 -14 -91 -51 -116 -102 -19 -38
-21 -56 -16 -163 2 -66 6 -131 8 -145 2 -14 7 -69 11 -122 3 -54 8 -110 10
-125 2 -16 6 -66 10 -113 3 -47 8 -105 10 -130 2 -25 6 -79 9 -120 4 -41 8
-95 11 -120 2 -25 7 -79 10 -120 7 -106 14 -196 20 -257 9 -100 14 -158 20
-233 3 -41 7 -102 10 -135 10 -115 14 -170 20 -245 3 -41 8 -97 10 -125 3 -27
7 -84 10 -125 3 -41 8 -93 10 -115 3 -22 7 -78 10 -125 3 -47 7 -101 10 -120
2 -19 7 -73 10 -120 3 -47 8 -101 10 -120 2 -19 6 -73 10 -120 3 -47 8 -103
10 -125 2 -22 7 -74 10 -115 4 -41 11 -77 15 -80 13 -8 2119 -4 2128 4 4 4 7
952 8 2107 l0 2099 -450 -1 c-248 -1 -464 -4 -481 -9z m-408 -1202 c1 -45 14
-284 18 -318 6 -53 18 -277 19 -345 l1 -60 -418 -1 c-230 0 -419 2 -421 5 -2
3 -7 44 -10 91 -4 47 -9 99 -11 115 -2 17 -7 64 -10 105 -3 41 -8 89 -10 105
-2 17 -7 64 -10 105 -3 41 -8 102 -11 135 -7 69 -7 68 -5 78 0 4 196 7 434 7
l433 0 1 -22z m1153 13 c4 -1 5 -734 1 -751 0 -3 -147 -5 -325 -5 -178 0 -324
1 -323 2 1 1 95 96 210 211 201 204 207 211 207 250 0 74 -71 120 -135 89 -11
-5 -141 -131 -289 -279 -148 -148 -272 -265 -275 -259 -4 6 -7 28 -6 50 0 38
8 48 156 198 86 87 161 168 167 180 19 35 14 79 -12 110 -20 23 -32 28 -70 28
-45 0 -48 -2 -153 -107 -59 -59 -108 -107 -109 -105 -3 2 -9 79 -20 242 -3 50
-7 101 -9 114 -3 13 -3 27 -1 30 3 5 965 7 986 2z m-1096 -921 c2 -3 7 -41 11
-85 3 -44 7 -107 10 -140 2 -33 7 -100 10 -150 3 -49 7 -110 10 -135 2 -25 7
-83 10 -130 3 -47 8 -110 10 -140 l5 -56 -415 0 c-370 0 -415 1 -416 15 -1 9
-3 25 -4 36 -1 11 -6 56 -9 100 -4 44 -9 96 -11 115 -2 19 -7 73 -10 120 -3
47 -8 104 -11 127 -3 24 -7 69 -9 100 -2 32 -7 96 -11 143 l-6 85 415 0 c228
0 418 -2 421 -5z m1092 -12 c5 -4 9 -171 9 -420 l0 -413 -437 -1 -438 -1 -1
31 c0 17 -2 38 -3 46 -2 8 -6 67 -10 130 -4 63 -9 133 -11 155 -3 22 -7 78
-10 125 -11 192 -16 267 -20 304 -2 22 -3 42 -1 45 5 8 909 6 922 -1z m-296
-1097 c20 -1 -5 -30 -163 -189 -173 -175 -187 -191 -187 -224 0 -25 8 -47 26
-67 21 -26 33 -31 69 -31 43 0 43 0 298 256 141 141 260 254 264 251 4 -3 7
-36 6 -74 -2 -94 -1 -93 -16 -93 -7 0 -142 -130 -300 -288 -220 -221 -287
-294 -287 -312 l0 -25 -594 0 c-327 0 -597 3 -600 5 -2 3 -7 48 -11 100 -3 52
-8 111 -10 130 -2 19 -7 80 -10 135 -4 55 -8 112 -10 128 -2 15 -6 71 -10 125
-3 53 -8 112 -11 131 -2 19 0 37 5 40 7 5 1421 6 1541 2z m314 -608 c0 -93 -3
-173 -6 -179 -5 -7 -311 -12 -362 -5 -5 0 74 84 175 185 101 102 186 181 189
176 3 -4 5 -84 4 -177z"/>
<path d="M7347 7403 c-2 -5 -4 -190 -3 -412 l1 -404 87 -28 c168 -54 328 -154
450 -283 l58 -61 282 0 283 -1 -2 -24 c0 -14 -4 -65 -8 -115 -3 -49 -8 -121
-11 -158 -2 -38 -6 -89 -8 -115 -3 -26 -8 -96 -12 -157 -3 -60 -8 -117 -10
-125 -1 -8 -3 -27 -3 -41 l-1 -25 -90 1 -91 1 6 -55 c9 -89 10 -91 63 -91 26
-1 74 -4 107 -7 33 -4 273 -7 533 -7 l473 -1 -6 -75 c-3 -41 -8 -100 -11 -130
-2 -30 -6 -77 -9 -105 -8 -91 -18 -201 -30 -345 -10 -120 -16 -174 -20 -180
-2 -3 -78 -6 -169 -6 -104 1 -166 -3 -167 -9 -1 -5 -1 -37 -1 -70 2 -142 5
-185 16 -187 6 -1 70 -3 141 -4 171 -2 177 -3 172 -11 -3 -5 -8 -62 -12 -128
-4 -66 -8 -131 -10 -145 -1 -14 -6 -70 -10 -125 -4 -55 -9 -116 -10 -135 -2
-19 -6 -78 -10 -130 -3 -52 -8 -102 -11 -110 -3 -13 -24 -15 -119 -15 l-116 1
3 -89 c1 -68 5 -90 17 -96 17 -7 387 -8 395 0 2 2 7 36 10 74 8 90 16 188 22
245 2 25 6 77 9 115 3 39 7 96 10 128 3 31 7 85 10 120 3 34 8 87 10 117 3 30
7 82 10 115 2 33 7 94 10 135 8 96 12 146 20 245 3 44 8 100 10 125 2 25 6 79
10 120 3 41 8 95 10 120 3 25 7 81 10 125 4 44 8 96 10 115 2 19 6 73 9 120 4
47 8 105 11 130 5 59 13 158 20 245 3 39 7 93 10 120 2 28 7 86 10 130 3 44 8
94 10 110 2 17 7 75 10 130 4 55 9 108 11 118 1 9 6 68 10 131 7 125 -1 168
-43 224 -52 69 -31 66 -612 72 l-524 5 -3 85 c-12 405 -16 437 -66 515 -51 81
-119 133 -208 159 -45 14 -121 16 -496 16 -244 0 -445 -3 -447 -7z m2188
-1258 c-3 -41 -8 -94 -10 -118 -2 -23 -7 -69 -10 -102 -3 -33 -8 -85 -11 -115
-11 -110 -13 -136 -20 -220 -3 -47 -7 -92 -9 -100 -2 -13 -55 -15 -424 -15
l-423 -1 7 127 c3 70 8 140 10 155 1 16 6 88 11 159 4 72 8 144 10 160 1 17 2
56 3 88 l1 57 436 0 436 0 -7 -75z"/>
<path d="M6890 6323 c-30 -4 -109 -23 -130 -30 -8 -4 -21 -7 -28 -9 -33 -7
-171 -79 -227 -119 -155 -110 -259 -230 -392 -450 -31 -51 -99 -200 -134 -291
-42 -113 -97 -310 -94 -336 2 -9 6 -56 9 -105 4 -48 9 -106 11 -128 3 -22 7
-73 10 -114 3 -41 6 -75 8 -76 1 -1 63 -40 137 -87 74 -46 165 -104 201 -127
l67 -43 12 -81 c6 -45 13 -93 15 -107 2 -14 7 -45 10 -70 3 -25 8 -52 10 -60
2 -8 6 -37 10 -65 3 -27 7 -61 10 -75 5 -30 10 -58 25 -165 6 -44 13 -91 15
-105 2 -14 16 -106 30 -205 14 -99 28 -191 30 -205 3 -14 7 -45 10 -70 4 -25
10 -69 16 -99 5 -30 9 -58 9 -62 0 -4 -37 -12 -82 -18 -46 -7 -94 -14 -108
-16 -14 -2 -45 -7 -70 -10 -25 -3 -85 -12 -135 -20 -49 -7 -110 -16 -135 -19
-25 -3 -56 -8 -69 -11 -13 -2 -49 -7 -80 -11 -31 -3 -65 -8 -76 -11 -11 -2
-46 -7 -77 -10 -56 -6 -58 -5 -59 18 -1 27 -5 57 -19 144 -5 33 -12 80 -15
105 -3 25 -7 56 -10 70 -2 14 -7 50 -11 80 -3 30 -7 57 -9 60 -2 3 -6 34 -10
70 -4 36 -9 67 -10 70 -2 3 -7 35 -10 70 -4 36 -8 67 -10 70 -2 3 -6 32 -9 65
-4 33 -9 67 -11 75 -2 8 -7 38 -10 65 -3 28 -10 77 -15 110 -5 33 -12 78 -15
100 -4 22 -8 51 -10 65 -19 121 -17 133 17 171 18 19 58 64 88 99 30 35 83 95
117 134 41 47 60 76 58 90 -5 27 -25 171 -31 214 -15 115 -25 176 -31 182 -7
7 -544 7 -548 0 -4 -6 -10 -124 -30 -555 -3 -71 -8 -166 -10 -210 -2 -44 -7
-138 -10 -210 -4 -71 -8 -168 -10 -215 -11 -221 -16 -312 -20 -400 -3 -52 -7
-144 -10 -205 -3 -60 -8 -153 -10 -205 -5 -115 -16 -332 -32 -640 -13 -248 -9
-418 11 -495 75 -290 289 -510 581 -596 l80 -24 1260 0 c1199 0 1263 1 1330
19 297 79 514 294 596 593 25 88 29 218 15 478 -8 159 -10 197 -20 425 -4 80
-9 177 -11 215 -3 39 -7 129 -10 200 -3 72 -7 164 -10 205 -2 41 -7 131 -10
200 -5 116 -8 172 -20 420 -5 92 -8 167 -20 415 -3 66 -8 156 -10 200 -2 44
-7 139 -11 210 -3 72 -7 141 -8 155 l-1 25 -313 0 -313 0 -6 25 c-160 698
-507 1151 -951 1245 -59 12 -210 17 -272 8z m298 -253 c234 -83 453 -348 599
-725 42 -106 95 -286 87 -294 -3 -3 -394 -6 -870 -6 -766 0 -864 2 -864 15 0
56 84 296 150 431 82 168 166 287 280 398 103 100 189 154 307 191 80 26 224
21 311 -10z"/>
<path d="M4983 5478 c-12 -7 -47 -38 -79 -68 l-58 -55 129 -3 c141 -3 149 0
139 53 -12 61 -83 100 -131 73z"/>
<path d="M5865 4428 c-96 -21 -143 -130 -94 -218 53 -94 198 -93 253 0 66 112
-31 245 -159 218z"/>
<path d="M3095 3320 c-1 -445 2 -811 5 -811 3 -1 359 -2 793 -3 523 -1 787 2
788 9 0 5 2 51 5 101 l5 90 -625 0 c-344 -1 -626 1 -626 4 0 3 103 108 230
235 126 126 234 241 241 256 32 79 -58 158 -134 117 -12 -6 -112 -102 -222
-212 -111 -111 -208 -207 -216 -213 -14 -11 -15 -3 -14 65 l1 77 297 296 c289
286 298 297 294 330 -8 72 -65 114 -127 94 -12 -4 -120 -105 -241 -226 -120
-120 -220 -219 -222 -219 -2 0 -3 133 -3 296 l1 297 708 0 c519 -1 710 2 713
11 2 6 5 56 6 111 l3 100 -830 3 -830 2 0 -810z"/>
</g>
</svg>
