<svg data-v-fde0c5aa="" xmlns="http://www.w3.org/2000/svg" viewBox="0 0 300 300" class="iconLeft"><!----><defs data-v-fde0c5aa=""><!----></defs><rect data-v-fde0c5aa="" fill="#437085" x="0" y="0" width="300px" height="300px" class="logo-background-square"></rect><defs data-v-fde0c5aa=""><!----></defs><g data-v-fde0c5aa="" id="32c5949b-77b5-4559-b734-c0711ff69913" fill="#ECEBE7" transform="matrix(2.2164565475214997,0,0,2.2164565475214997,101.72282572913916,135.34125661614524)"><path d="M4.55 3.37C3.64 3.37 2.83 3.70 2.25 4.23L2.04 3.67C1.92 3.28 0.67 3.25 0.67 3.78L0.67 12.46C0.67 13.01 2.32 13.01 2.32 12.46L2.32 9.30C2.90 9.77 3.68 10.04 4.55 10.04C6.05 10.04 7.04 8.74 7.04 6.73C7.04 4.72 6.05 3.37 4.55 3.37ZM3.84 8.61C3.29 8.60 2.77 8.37 2.32 7.95L2.32 5.50C2.76 5.05 3.29 4.82 3.84 4.80C4.86 4.80 5.39 5.46 5.39 6.72C5.39 7.95 4.86 8.61 3.84 8.61ZM13.30 8.51L9.81 8.51C10.11 7.41 11.09 6.93 12.07 6.44C13.17 5.88 14.27 5.29 14.27 3.68C14.27 1.88 12.89 1.02 11.24 1.02C10.39 1.02 9.48 1.26 8.62 1.69C8.04 2.00 8.01 3.54 8.61 3.22C9.69 2.67 10.57 2.42 11.24 2.42C12.12 2.42 12.63 2.84 12.63 3.57C12.63 4.44 11.80 4.91 10.86 5.45C9.55 6.19 7.99 7.07 7.99 9.24C7.99 9.59 8.09 9.95 8.30 9.95L14 9.95C14.66 9.95 13.96 8.51 13.30 8.51ZM19.32 3.37C18.41 3.37 17.60 3.70 17.02 4.23L16.81 3.67C16.69 3.28 15.44 3.25 15.44 3.78L15.44 12.46C15.44 13.01 17.09 13.01 17.09 12.46L17.09 9.30C17.67 9.77 18.45 10.04 19.32 10.04C20.82 10.04 21.81 8.74 21.81 6.73C21.81 4.72 20.82 3.37 19.32 3.37ZM18.61 8.61C18.06 8.60 17.54 8.37 17.09 7.95L17.09 5.50C17.53 5.05 18.06 4.82 18.61 4.80C19.63 4.80 20.16 5.46 20.16 6.72C20.16 7.95 19.63 8.61 18.61 8.61ZM23.24 12.46C23.24 13.01 24.88 13.01 24.88 12.46L24.88 0.62C24.88-0.04 23.24 0.66 23.24 1.32ZM37.48 8.57C37.35 8.62 37.25 8.64 37.16 8.64C36.88 8.64 36.74 8.44 36.74 8.04L36.74 7.63L36.74 5.73C36.74 4.26 35.92 3.37 34.59 3.37C33.70 3.37 32.87 3.75 32.26 4.52C31.92 3.79 31.26 3.37 30.35 3.37C29.53 3.37 28.77 3.70 28.17 4.34L27.94 3.67C27.80 3.28 26.57 3.23 26.57 3.77L26.57 9.63C26.57 10.19 28.21 10.19 28.21 9.63L28.21 5.73C28.71 5.07 29.22 4.82 29.67 4.82C30.45 4.82 30.84 5.28 30.84 6.30L30.84 9.63C30.84 10.19 32.48 10.19 32.48 9.63L32.48 5.73L32.48 5.70C32.97 5.05 33.46 4.82 33.91 4.82C34.68 4.82 35.10 5.28 35.10 6.30L35.10 7.20L35.10 8.29C35.10 9.66 35.67 10.11 36.40 10.11C36.74 10.11 37.10 10.01 37.48 9.87C38.07 9.62 38.04 8.29 37.48 8.57ZM45.47 8.48C45.36 8.53 45.26 8.54 45.16 8.54C44.90 8.54 44.76 8.33 44.76 7.76L44.76 6.03C44.76 4.05 43.67 3.37 41.96 3.37C40.54 3.37 39.72 3.65 39.13 4.14C38.67 4.51 38.77 5.56 39.24 5.26C39.82 4.93 40.59 4.69 41.45 4.69C42.63 4.69 43.12 5.08 43.12 6.24L43.12 6.31C42.69 6.09 42.04 5.95 41.15 5.95C39.65 5.95 38.68 6.76 38.68 8.01C38.68 9.25 39.59 10.05 40.99 10.05C42.07 10.05 42.83 9.66 43.29 9.24C43.51 9.81 43.93 10.02 44.42 10.02C44.76 10.02 45.12 9.93 45.47 9.79C46.07 9.53 46.07 8.26 45.47 8.48ZM41.44 8.75C40.63 8.75 40.33 8.37 40.33 7.97C40.33 7.55 40.66 7.15 41.52 7.15C42.34 7.15 42.87 7.29 43.12 7.48L43.12 8.04C42.87 8.34 42.31 8.75 41.44 8.75ZM50.96 3.43C49.87 3.46 49.06 3.88 48.52 4.54L48.31 3.68C48.22 3.29 46.89 3.28 46.89 3.81L46.89 9.63C46.89 10.19 48.54 10.19 48.54 9.63L48.54 5.94C49.18 5.25 49.84 5.04 50.65 5.00C51.14 4.98 51.48 3.42 50.96 3.43ZM57.96 8.50C57.12 8.79 56.70 8.16 56.29 7.50C56.11 7.20 55.93 6.89 55.72 6.65C56.67 5.80 57.50 4.90 58.37 3.81C58.79 3.28 56.97 3.26 56.53 3.81C55.59 4.96 54.94 5.60 53.90 6.43L53.90 0.63C53.90-0.03 52.26 0.67 52.26 1.33L52.26 9.63C52.26 10.19 53.90 10.19 53.90 9.63L53.90 8.12C54.17 7.92 54.40 7.74 54.66 7.55C54.91 7.84 55.13 8.19 55.37 8.54C55.96 9.48 56.57 10.39 58.00 9.90C58.59 9.69 58.52 8.29 57.96 8.50ZM65.28 6.23C65.28 4.38 64.26 3.37 62.22 3.37C60.09 3.37 58.98 4.66 58.98 6.66C58.98 9.04 60.70 10.04 62.43 10.04C63.21 10.04 63.95 9.83 64.60 9.42C64.99 9.17 64.99 8.02 64.47 8.25C63.76 8.57 63.14 8.75 62.55 8.75C61.57 8.75 60.66 8.27 60.63 7.28C61.01 7.34 61.43 7.36 61.81 7.36C63.57 7.36 65.28 6.89 65.28 6.23ZM60.66 6.10C60.68 5.03 61.39 4.62 62.29 4.62C63.27 4.62 63.78 5.08 63.78 5.77C63.78 5.98 62.87 6.16 61.71 6.16C61.38 6.16 61.03 6.15 60.66 6.10ZM70.90 8.26C69.58 9.02 68.80 8.76 68.80 7.45L68.80 5.12L70.99 5.12C71.55 5.12 71.55 3.68 70.99 3.68L68.80 3.68L68.80 2.03C68.80 1.50 67.49 1.50 67.42 1.90L67.14 3.68L66.29 3.68C65.73 3.68 65.73 5.12 66.29 5.12L67.14 5.12L67.14 7.39C67.14 9.95 69.10 10.58 70.90 9.59C71.37 9.30 71.36 8.01 70.90 8.26Z"></path></g><defs data-v-fde0c5aa=""><!----></defs><g data-v-fde0c5aa="" id="b51b2906-f6eb-475f-ac13-fd89ab697b7d" stroke="none" fill="#ECEBE7" transform="matrix(0.5550592038028357,0,0,0.5550592038028357,37.34919153420688,122.05027407047302)"><path d="M57.803 59.938c.772-.113 1.332-.831 1.232-1.648s-.832-1.332-1.648-1.232a1.471 1.471 0 0 0-1.233 1.648c.1.817.831 1.332 1.649 1.232zm19.161-8.856H59.905c1.272-5.803 4.932-10.31 8.57-10.31 4.194 0 7.283 5.215 8.489 10.31zm-21.417 0h-5.424l-1.37 28.324c-.219 4.657 3.397 8.438 8.054 8.438h21.915c4.656 0 8.272-3.78 8.053-8.438l-1.369-28.324H79.27c-1.479-7.232-5.589-12.546-10.848-12.546-5.26 0-9.369 4.985-10.958 11.943l.359 4.297 3.971 2.519 1.979 13.439-8.644 1.249-1.933-13.425 2.925-3.356-.574-4.12z"></path><defs><path id="a" d="M45.504 80.45l1.526-32.328 8.794.008s1.548-12.393 12.927-12.393c11.38 0 12.151 12.715 12.151 12.715l7.071.576.682 21.117h10.778l-1.105-38.852-18.766-18.375L58.98 7.586 34.105 8.619 19.206 10.19S3.42 20.812 2.041 21.961C.663 23.108-4.6 35.837-4.956 36.809c-.354.972 1.149 20.181 1.149 20.181L2.05 70.897l11.423 6.936 15.49 3.822 16.541-1.205z"></path></defs><clipPath id="b"><use xlink:href="#a" overflow="visible"></use></clipPath><g clip-path="url(#b)"><path clip-rule="evenodd" d="M93.297 35.625h-.556l-9.089-.003-.126-4.045a3.592 3.592 0 0 0-3.592-3.592h-8.223v7.634h-.001v33.51h20.946l2.499-30.554s.042-.185.064-.474c.111-1.342-.573-2.476-1.922-2.476zm-19.94 4.041h9.698l-.539 7.422h-9.159v-7.422zm0 9.101h9.118l-.569 8.2h-8.549v-8.2zm-.073 10.73h3.029l-3.029 3.027v-3.027zm17.577 7.791h-15.47l4.01-4.01a.946.946 0 1 0-1.339-1.339l-4.778 4.777v-1.645a.933.933 0 0 0 .347-.215l5.157-5.156c.061-.061.095-.134.136-.204h12.535l-.598 7.792zm.722-10.427h-8.104l.591-8.219h8.226l-.713 8.219zm.923-9.957h-8.271l.466-7.292h8.479l-.674 7.292zM28.292 27.983h-8.257a3.592 3.592 0 0 0-3.592 3.592l-.125 4.045-9.052.003h-.555c-1.349 0-2.033 1.135-1.924 2.475.024.289.065.474.065.474l2.499 30.554h20.946v-33.51h-.005v-7.633zM26.53 39.666v7.422H20.1l3.884-3.884a.946.946 0 1 0-1.339-1.339l-5.157 5.156c-.02.02-.027.046-.044.066h-.073l-.071-.983 3.092-3.139a.948.948 0 0 0-1.339-1.34l-1.935 1.964-.285-3.923h9.697zm0 9.101v8.2h-8.548l-.569-8.2h9.117zM6.708 39.612h8.479l.466 7.292H7.382l-.674-7.292zm.885 9.031h8.226l.591 8.219H8.304l-.711-8.219zm19.011 18.645h-3.712l3.712-3.712v3.712zm0-6.157a.917.917 0 0 0-.472.238l-5.157 5.157a.927.927 0 0 0-.259.762H9.027l-.598-7.791h15.384l-3.451 3.45a.948.948 0 0 0 1.339 1.341l4.791-4.791h.112v1.634zm3.616 14.755h39.946l.007-15.882H30.235l-.015 15.882zm30.034-13.647h7.652v11.687h-7.652V62.239zm-27.788 8.375a.929.929 0 0 0 .372-.22l5.157-5.157a.946.946 0 1 0-1.34-1.339l-4.188 4.189v-5.849h25.915v11.687H33.497l4.498-4.497a.946.946 0 1 0-1.34-1.339l-4.188 4.188v-1.663zm37.391-13.259l-.044-38.886h.008l-.023-2.012a3.592 3.592 0 0 0-3.593-3.592H33.834a3.592 3.592 0 0 0-3.593 3.592l-.023 2.012h.016l-.061 38.886h39.684zM57.1 37.03l4.964-4.962a.948.948 0 0 0-1.34-1.34L57.1 34.353v-1.514l4.964-4.963a.946.946 0 1 0-1.34-1.339L57.1 30.162v-7.719h10.501v14.96H57.1v-.373zm0 2.601h10.501v15.607H57.1V39.631zM44.82 22.443h10.501v9.759a.922.922 0 0 0 0 .323v3.868a.922.922 0 0 0 0 .323v.88H44.82V22.443zm0 30.82l4.91-4.909a.948.948 0 0 0-1.339-1.34l-3.571 3.571v-1.337a.93.93 0 0 0 .468-.237l3.125-3.172a.948.948 0 0 0-1.339-1.34l-2.253 2.286v-7.349h10.501v15.802H44.82v-1.975zm-12.459-30.82h10.5v.252a.926.926 0 0 0-.817.249l-5.157 5.158a.946.946 0 1 0 1.34 1.339l4.635-4.635v1.638a.945.945 0 0 0-.338.212l-5.157 5.157a.948.948 0 0 0 1.339 1.34l4.156-4.156v8.447h-10.5V22.443zm0 16.871h10.5v15.924h-10.5V39.314z"></path></g></g><!----></svg>