<?xml version="1.0" encoding="UTF-8" standalone="no"?>
<svg
   data-v-423bf9ae=""
   viewBox="0 0 120 120"
   class="iconLeft"
   version="1.1"
   id="svg18"
   sodipodi:docname="icon.svg"
   width="120"
   height="120"
   inkscape:version="1.1 (c4e8f9ed74, 2021-05-24)"
   inkscape:export-filename="/home/timo/Documents/Projects/work/freelance/p2pmarket/p2pmarket_client/src/assets/images/logo/vector/icon.png"
   inkscape:export-xdpi="819.20001"
   inkscape:export-ydpi="819.20001"
   xmlns:inkscape="http://www.inkscape.org/namespaces/inkscape"
   xmlns:sodipodi="http://sodipodi.sourceforge.net/DTD/sodipodi-0.dtd"
   xmlns:xlink="http://www.w3.org/1999/xlink"
   xmlns="http://www.w3.org/2000/svg"
   xmlns:svg="http://www.w3.org/2000/svg">
  <defs
     id="defs22" />
  <sodipodi:namedview
     id="namedview20"
     pagecolor="#ffffff"
     bordercolor="#666666"
     borderopacity="1.0"
     inkscape:pageshadow="2"
     inkscape:pageopacity="0.0"
     inkscape:pagecheckerboard="true"
     showgrid="false"
     inkscape:zoom="2.9123932"
     inkscape:cx="144.03962"
     inkscape:cy="57.684519"
     inkscape:window-width="1900"
     inkscape:window-height="1040"
     inkscape:window-x="8"
     inkscape:window-y="28"
     inkscape:window-maximized="0"
     inkscape:current-layer="svg18" />
  <!---->
  <!---->
  <!---->
  <!---->
  <g
     data-v-423bf9ae=""
     id="7cfe75f6-a2d8-4303-8f24-1477e935de8c"
     transform="matrix(1.2003362,0,0,1.2003362,-0.0206448,-0.4423291)"
     stroke="none"
     fill="#ffffff"
     style="fill:#ecebe7;fill-opacity:1">
    <path
       d="m 57.803,59.938 c 0.772,-0.113 1.332,-0.831 1.232,-1.648 -0.1,-0.817 -0.832,-1.332 -1.648,-1.232 a 1.471,1.471 0 0 0 -1.233,1.648 c 0.1,0.817 0.831,1.332 1.649,1.232 z M 76.964,51.082 H 59.905 c 1.272,-5.803 4.932,-10.31 8.57,-10.31 4.194,0 7.283,5.215 8.489,10.31 z m -21.417,0 h -5.424 l -1.37,28.324 c -0.219,4.657 3.397,8.438 8.054,8.438 h 21.915 c 4.656,0 8.272,-3.78 8.053,-8.438 L 85.406,51.082 H 79.27 C 77.791,43.85 73.681,38.536 68.422,38.536 c -5.26,0 -9.369,4.985 -10.958,11.943 l 0.359,4.297 3.971,2.519 1.979,13.439 -8.644,1.249 -1.933,-13.425 2.925,-3.356 z"
       id="path5"
       style="fill:#ecebe7;fill-opacity:1" />
    <defs
       id="defs8">
      <path
         id="a"
         d="m 45.504,80.45 1.526,-32.328 8.794,0.008 c 0,0 1.548,-12.393 12.927,-12.393 11.38,0 12.151,12.715 12.151,12.715 l 7.071,0.576 0.682,21.117 H 99.433 L 98.328,31.293 79.562,12.918 58.98,7.586 34.105,8.619 19.206,10.19 c 0,0 -15.786,10.622 -17.165,11.771 -1.378,1.147 -6.641,13.876 -6.997,14.848 -0.354,0.972 1.149,20.181 1.149,20.181 l 5.857,13.907 11.423,6.936 15.49,3.822 z" />
    </defs>
    <clipPath
       id="b">
      <use
         xlink:href="#a"
         overflow="visible"
         id="use10"
         x="0"
         y="0"
         width="100%"
         height="100%" />
    </clipPath>
    <g
       clip-path="url(#b)"
       id="g15"
       style="fill:#ecebe7;fill-opacity:1">
      <path
         clip-rule="evenodd"
         d="m 93.297,35.625 h -0.556 l -9.089,-0.003 -0.126,-4.045 a 3.592,3.592 0 0 0 -3.592,-3.592 h -8.223 v 7.634 H 71.71 v 33.51 h 20.946 l 2.499,-30.554 c 0,0 0.042,-0.185 0.064,-0.474 0.111,-1.342 -0.573,-2.476 -1.922,-2.476 z m -19.94,4.041 h 9.698 l -0.539,7.422 h -9.159 z m 0,9.101 h 9.118 l -0.569,8.2 h -8.549 z m -0.073,10.73 h 3.029 l -3.029,3.027 z m 17.577,7.791 h -15.47 l 4.01,-4.01 a 0.94681598,0.94681598 0 1 0 -1.339,-1.339 l -4.778,4.777 v -1.645 a 0.933,0.933 0 0 0 0.347,-0.215 L 78.788,59.7 c 0.061,-0.061 0.095,-0.134 0.136,-0.204 h 12.535 z m 0.722,-10.427 h -8.104 l 0.591,-8.219 h 8.226 z m 0.923,-9.957 h -8.271 l 0.466,-7.292 H 93.18 Z M 28.292,27.983 h -8.257 a 3.592,3.592 0 0 0 -3.592,3.592 L 16.318,35.62 7.266,35.623 H 6.711 c -1.349,0 -2.033,1.135 -1.924,2.475 0.024,0.289 0.065,0.474 0.065,0.474 L 7.351,69.126 H 28.297 V 35.616 H 28.292 Z M 26.53,39.666 v 7.422 H 20.1 l 3.884,-3.884 a 0.94681598,0.94681598 0 1 0 -1.339,-1.339 l -5.157,5.156 c -0.02,0.02 -0.027,0.046 -0.044,0.066 H 17.371 L 17.3,46.104 20.392,42.965 a 0.948,0.948 0 0 0 -1.339,-1.34 l -1.935,1.964 -0.285,-3.923 z m 0,9.101 v 8.2 h -8.548 l -0.569,-8.2 z M 6.708,39.612 h 8.479 l 0.466,7.292 H 7.382 Z m 0.885,9.031 h 8.226 l 0.591,8.219 H 8.304 Z m 19.011,18.645 h -3.712 l 3.712,-3.712 z m 0,-6.157 a 0.917,0.917 0 0 0 -0.472,0.238 l -5.157,5.157 a 0.927,0.927 0 0 0 -0.259,0.762 H 9.027 L 8.429,59.497 h 15.384 l -3.451,3.45 a 0.948,0.948 0 0 0 1.339,1.341 l 4.791,-4.791 h 0.112 z M 30.22,75.886 H 70.166 L 70.173,60.004 H 30.235 Z M 60.254,62.239 h 7.652 v 11.687 h -7.652 z m -27.788,8.375 a 0.929,0.929 0 0 0 0.372,-0.22 l 5.157,-5.157 a 0.9471696,0.9471696 0 1 0 -1.34,-1.339 l -4.188,4.189 V 62.238 H 58.382 V 73.925 H 33.497 l 4.498,-4.497 a 0.9471696,0.9471696 0 1 0 -1.34,-1.339 l -4.188,4.188 V 70.614 Z M 69.857,57.355 69.813,18.469 h 0.008 L 69.798,16.457 A 3.592,3.592 0 0 0 66.205,12.865 H 33.834 a 3.592,3.592 0 0 0 -3.593,3.592 l -0.023,2.012 h 0.016 L 30.173,57.355 Z M 57.1,37.03 62.064,32.068 a 0.948,0.948 0 0 0 -1.34,-1.34 L 57.1,34.353 v -1.514 l 4.964,-4.963 a 0.9471696,0.9471696 0 1 0 -1.34,-1.339 L 57.1,30.162 v -7.719 h 10.501 v 14.96 H 57.1 Z m 0,2.601 H 67.601 V 55.238 H 57.1 Z M 44.82,22.443 h 10.501 v 9.759 a 0.922,0.922 0 0 0 0,0.323 v 3.868 a 0.922,0.922 0 0 0 0,0.323 v 0.88 H 44.82 Z m 0,30.82 4.91,-4.909 a 0.948,0.948 0 0 0 -1.339,-1.34 l -3.571,3.571 v -1.337 a 0.93,0.93 0 0 0 0.468,-0.237 l 3.125,-3.172 a 0.948,0.948 0 0 0 -1.339,-1.34 l -2.253,2.286 V 39.436 H 55.322 V 55.238 H 44.82 Z M 32.361,22.443 h 10.5 v 0.252 a 0.926,0.926 0 0 0 -0.817,0.249 l -5.157,5.158 a 0.9471696,0.9471696 0 1 0 1.34,1.339 l 4.635,-4.635 v 1.638 a 0.945,0.945 0 0 0 -0.338,0.212 l -5.157,5.157 a 0.948,0.948 0 0 0 1.339,1.34 l 4.156,-4.156 v 8.447 h -10.5 V 22.443 Z m 0,16.871 h 10.5 v 15.924 h -10.5 z"
         id="path13"
         style="fill:#ecebe7;fill-opacity:1" />
    </g>
  </g>
  <!---->
</svg>
