<svg data-v-423bf9ae="" xmlns="http://www.w3.org/2000/svg" viewBox="0 0 339.068847051603 60" class="font"><!----><!----><!----><g data-v-423bf9ae="" id="a8535fb4-ce6f-48a0-b359-0ecbf02fb66a" fill="white" transform="matrix(4.79316964548962,0,0,4.79316964548962,-3.2114292217997047,-1.700077481542305)"><path d="M4.55 3.37C3.64 3.37 2.83 3.70 2.25 4.23L2.04 3.67C1.92 3.28 0.67 3.25 0.67 3.78L0.67 12.46C0.67 13.01 2.32 13.01 2.32 12.46L2.32 9.30C2.90 9.77 3.68 10.04 4.55 10.04C6.05 10.04 7.04 8.74 7.04 6.73C7.04 4.72 6.05 3.37 4.55 3.37ZM3.84 8.61C3.29 8.60 2.77 8.37 2.32 7.95L2.32 5.50C2.76 5.05 3.29 4.82 3.84 4.80C4.86 4.80 5.39 5.46 5.39 6.72C5.39 7.95 4.86 8.61 3.84 8.61ZM13.30 8.51L9.81 8.51C10.11 7.41 11.09 6.93 12.07 6.44C13.17 5.88 14.27 5.29 14.27 3.68C14.27 1.88 12.89 1.02 11.24 1.02C10.39 1.02 9.48 1.26 8.62 1.69C8.04 2.00 8.01 3.54 8.61 3.22C9.69 2.67 10.57 2.42 11.24 2.42C12.12 2.42 12.63 2.84 12.63 3.57C12.63 4.44 11.80 4.91 10.86 5.45C9.55 6.19 7.99 7.07 7.99 9.24C7.99 9.59 8.09 9.95 8.30 9.95L14 9.95C14.66 9.95 13.96 8.51 13.30 8.51ZM19.32 3.37C18.41 3.37 17.60 3.70 17.02 4.23L16.81 3.67C16.69 3.28 15.44 3.25 15.44 3.78L15.44 12.46C15.44 13.01 17.09 13.01 17.09 12.46L17.09 9.30C17.67 9.77 18.45 10.04 19.32 10.04C20.82 10.04 21.81 8.74 21.81 6.73C21.81 4.72 20.82 3.37 19.32 3.37ZM18.61 8.61C18.06 8.60 17.54 8.37 17.09 7.95L17.09 5.50C17.53 5.05 18.06 4.82 18.61 4.80C19.63 4.80 20.16 5.46 20.16 6.72C20.16 7.95 19.63 8.61 18.61 8.61ZM23.24 12.46C23.24 13.01 24.88 13.01 24.88 12.46L24.88 0.62C24.88-0.04 23.24 0.66 23.24 1.32ZM37.48 8.57C37.35 8.62 37.25 8.64 37.16 8.64C36.88 8.64 36.74 8.44 36.74 8.04L36.74 7.63L36.74 5.73C36.74 4.26 35.92 3.37 34.59 3.37C33.70 3.37 32.87 3.75 32.26 4.52C31.92 3.79 31.26 3.37 30.35 3.37C29.53 3.37 28.77 3.70 28.17 4.34L27.94 3.67C27.80 3.28 26.57 3.23 26.57 3.77L26.57 9.63C26.57 10.19 28.21 10.19 28.21 9.63L28.21 5.73C28.71 5.07 29.22 4.82 29.67 4.82C30.45 4.82 30.84 5.28 30.84 6.30L30.84 9.63C30.84 10.19 32.48 10.19 32.48 9.63L32.48 5.73L32.48 5.70C32.97 5.05 33.46 4.82 33.91 4.82C34.68 4.82 35.10 5.28 35.10 6.30L35.10 7.20L35.10 8.29C35.10 9.66 35.67 10.11 36.40 10.11C36.74 10.11 37.10 10.01 37.48 9.87C38.07 9.62 38.04 8.29 37.48 8.57ZM45.47 8.48C45.36 8.53 45.26 8.54 45.16 8.54C44.90 8.54 44.76 8.33 44.76 7.76L44.76 6.03C44.76 4.05 43.67 3.37 41.96 3.37C40.54 3.37 39.72 3.65 39.13 4.14C38.67 4.51 38.77 5.56 39.24 5.26C39.82 4.93 40.59 4.69 41.45 4.69C42.63 4.69 43.12 5.08 43.12 6.24L43.12 6.31C42.69 6.09 42.04 5.95 41.15 5.95C39.65 5.95 38.68 6.76 38.68 8.01C38.68 9.25 39.59 10.05 40.99 10.05C42.07 10.05 42.83 9.66 43.29 9.24C43.51 9.81 43.93 10.02 44.42 10.02C44.76 10.02 45.12 9.93 45.47 9.79C46.07 9.53 46.07 8.26 45.47 8.48ZM41.44 8.75C40.63 8.75 40.33 8.37 40.33 7.97C40.33 7.55 40.66 7.15 41.52 7.15C42.34 7.15 42.87 7.29 43.12 7.48L43.12 8.04C42.87 8.34 42.31 8.75 41.44 8.75ZM50.96 3.43C49.87 3.46 49.06 3.88 48.52 4.54L48.31 3.68C48.22 3.29 46.89 3.28 46.89 3.81L46.89 9.63C46.89 10.19 48.54 10.19 48.54 9.63L48.54 5.94C49.18 5.25 49.84 5.04 50.65 5.00C51.14 4.98 51.48 3.42 50.96 3.43ZM57.96 8.50C57.12 8.79 56.70 8.16 56.29 7.50C56.11 7.20 55.93 6.89 55.72 6.65C56.67 5.80 57.50 4.90 58.37 3.81C58.79 3.28 56.97 3.26 56.53 3.81C55.59 4.96 54.94 5.60 53.90 6.43L53.90 0.63C53.90-0.03 52.26 0.67 52.26 1.33L52.26 9.63C52.26 10.19 53.90 10.19 53.90 9.63L53.90 8.12C54.17 7.92 54.40 7.74 54.66 7.55C54.91 7.84 55.13 8.19 55.37 8.54C55.96 9.48 56.57 10.39 58.00 9.90C58.59 9.69 58.52 8.29 57.96 8.50ZM65.28 6.23C65.28 4.38 64.26 3.37 62.22 3.37C60.09 3.37 58.98 4.66 58.98 6.66C58.98 9.04 60.70 10.04 62.43 10.04C63.21 10.04 63.95 9.83 64.60 9.42C64.99 9.17 64.99 8.02 64.47 8.25C63.76 8.57 63.14 8.75 62.55 8.75C61.57 8.75 60.66 8.27 60.63 7.28C61.01 7.34 61.43 7.36 61.81 7.36C63.57 7.36 65.28 6.89 65.28 6.23ZM60.66 6.10C60.68 5.03 61.39 4.62 62.29 4.62C63.27 4.62 63.78 5.08 63.78 5.77C63.78 5.98 62.87 6.16 61.71 6.16C61.38 6.16 61.03 6.15 60.66 6.10ZM70.90 8.26C69.58 9.02 68.80 8.76 68.80 7.45L68.80 5.12L70.99 5.12C71.55 5.12 71.55 3.68 70.99 3.68L68.80 3.68L68.80 2.03C68.80 1.50 67.49 1.50 67.42 1.90L67.14 3.68L66.29 3.68C65.73 3.68 65.73 5.12 66.29 5.12L67.14 5.12L67.14 7.39C67.14 9.95 69.10 10.58 70.90 9.59C71.37 9.30 71.36 8.01 70.90 8.26Z"></path></g><!----><!----></svg>